<mxfile host="app.diagrams.net" modified="2023-05-28T10:39:00.515Z" agent="Mozilla/5.0 (Windows NT 10.0; Win64; x64) AppleWebKit/537.36 (KHTML, like Gecko) Chrome/113.0.0.0 Safari/537.36" etag="z6J_bvC9VgDSkfaDwEJF" version="21.3.5" type="device">
  <diagram name="Σελίδα-1" id="bnlR6SahmsRWUH3v-4KW">
    <mxGraphModel dx="2219" dy="541" grid="1" gridSize="10" guides="1" tooltips="1" connect="1" arrows="1" fold="1" page="1" pageScale="1" pageWidth="1169" pageHeight="1654" math="0" shadow="0">
      <root>
        <mxCell id="0" />
        <mxCell id="1" parent="0" />
        <mxCell id="4nMGlKhWPUo4mE3yYb9U-2" value="" style="shape=umlLifeline;perimeter=lifelinePerimeter;whiteSpace=wrap;html=1;container=1;dropTarget=0;collapsible=0;recursiveResize=0;outlineConnect=0;portConstraint=eastwest;newEdgeStyle={&quot;edgeStyle&quot;:&quot;elbowEdgeStyle&quot;,&quot;elbow&quot;:&quot;vertical&quot;,&quot;curved&quot;:0,&quot;rounded&quot;:0};participant=umlBoundary;" parent="1" vertex="1">
          <mxGeometry x="790" y="265" width="50" height="1385" as="geometry" />
        </mxCell>
        <mxCell id="_HtZvy6H4poGQE2jAPsX-6" value="" style="html=1;points=[];perimeter=orthogonalPerimeter;" parent="1" vertex="1">
          <mxGeometry x="810" y="920" width="10" height="350" as="geometry" />
        </mxCell>
        <mxCell id="nyDjOfrzS_PwR3EFZTjZ-3" value="" style="shape=umlLifeline;perimeter=lifelinePerimeter;whiteSpace=wrap;html=1;container=1;dropTarget=0;collapsible=0;recursiveResize=0;outlineConnect=0;portConstraint=eastwest;newEdgeStyle={&quot;edgeStyle&quot;:&quot;elbowEdgeStyle&quot;,&quot;elbow&quot;:&quot;vertical&quot;,&quot;curved&quot;:0,&quot;rounded&quot;:0};participant=umlBoundary;" parent="1" vertex="1">
          <mxGeometry x="620.19" y="265" width="50" height="1385" as="geometry" />
        </mxCell>
        <mxCell id="4nMGlKhWPUo4mE3yYb9U-44" value="Alt1" style="shape=umlFrame;whiteSpace=wrap;html=1;pointerEvents=0;width=40;height=20;" parent="1" vertex="1">
          <mxGeometry x="40" y="870" width="790" height="280" as="geometry" />
        </mxCell>
        <mxCell id="_HtZvy6H4poGQE2jAPsX-5" value="" style="html=1;points=[];perimeter=orthogonalPerimeter;" parent="1" vertex="1">
          <mxGeometry x="640" y="780" width="10" height="340" as="geometry" />
        </mxCell>
        <mxCell id="nyDjOfrzS_PwR3EFZTjZ-5" value="" style="shape=umlLifeline;perimeter=lifelinePerimeter;whiteSpace=wrap;html=1;container=1;dropTarget=0;collapsible=0;recursiveResize=0;outlineConnect=0;portConstraint=eastwest;newEdgeStyle={&quot;edgeStyle&quot;:&quot;elbowEdgeStyle&quot;,&quot;elbow&quot;:&quot;vertical&quot;,&quot;curved&quot;:0,&quot;rounded&quot;:0};participant=umlBoundary;" parent="1" vertex="1">
          <mxGeometry x="120" y="260" width="50" height="1390" as="geometry" />
        </mxCell>
        <mxCell id="_HtZvy6H4poGQE2jAPsX-2" value="" style="html=1;points=[];perimeter=orthogonalPerimeter;" parent="1" vertex="1">
          <mxGeometry x="140" y="350" width="10" height="780" as="geometry" />
        </mxCell>
        <mxCell id="nyDjOfrzS_PwR3EFZTjZ-4" value="" style="shape=umlLifeline;perimeter=lifelinePerimeter;whiteSpace=wrap;html=1;container=1;dropTarget=0;collapsible=0;recursiveResize=0;outlineConnect=0;portConstraint=eastwest;newEdgeStyle={&quot;edgeStyle&quot;:&quot;elbowEdgeStyle&quot;,&quot;elbow&quot;:&quot;vertical&quot;,&quot;curved&quot;:0,&quot;rounded&quot;:0};participant=umlBoundary;" parent="1" vertex="1">
          <mxGeometry x="440" y="265" width="50" height="1385" as="geometry" />
        </mxCell>
        <mxCell id="_HtZvy6H4poGQE2jAPsX-4" value="" style="html=1;points=[];perimeter=orthogonalPerimeter;" parent="1" vertex="1">
          <mxGeometry x="460" y="600" width="10" height="190" as="geometry" />
        </mxCell>
        <mxCell id="nyDjOfrzS_PwR3EFZTjZ-8" value="" style="shape=umlLifeline;perimeter=lifelinePerimeter;whiteSpace=wrap;html=1;container=1;dropTarget=0;collapsible=0;recursiveResize=0;outlineConnect=0;portConstraint=eastwest;newEdgeStyle={&quot;edgeStyle&quot;:&quot;elbowEdgeStyle&quot;,&quot;elbow&quot;:&quot;vertical&quot;,&quot;curved&quot;:0,&quot;rounded&quot;:0};participant=umlEntity;" parent="1" vertex="1">
          <mxGeometry x="280" y="260" width="40" height="1390" as="geometry" />
        </mxCell>
        <mxCell id="_HtZvy6H4poGQE2jAPsX-3" value="" style="html=1;points=[];perimeter=orthogonalPerimeter;" parent="1" vertex="1">
          <mxGeometry x="295" y="350" width="10" height="730" as="geometry" />
        </mxCell>
        <mxCell id="nyDjOfrzS_PwR3EFZTjZ-1" value="" style="shape=umlLifeline;perimeter=lifelinePerimeter;whiteSpace=wrap;html=1;container=1;dropTarget=0;collapsible=0;recursiveResize=0;outlineConnect=0;portConstraint=eastwest;newEdgeStyle={&quot;edgeStyle&quot;:&quot;elbowEdgeStyle&quot;,&quot;elbow&quot;:&quot;vertical&quot;,&quot;curved&quot;:0,&quot;rounded&quot;:0};participant=umlActor;" parent="1" vertex="1">
          <mxGeometry x="10" y="260" width="20" height="1390" as="geometry" />
        </mxCell>
        <mxCell id="nyDjOfrzS_PwR3EFZTjZ-2" value="" style="shape=umlLifeline;perimeter=lifelinePerimeter;whiteSpace=wrap;html=1;container=1;dropTarget=0;collapsible=0;recursiveResize=0;outlineConnect=0;portConstraint=eastwest;newEdgeStyle={&quot;edgeStyle&quot;:&quot;elbowEdgeStyle&quot;,&quot;elbow&quot;:&quot;vertical&quot;,&quot;curved&quot;:0,&quot;rounded&quot;:0};participant=umlBoundary;" parent="1" vertex="1">
          <mxGeometry x="960" y="265" width="50" height="1385" as="geometry" />
        </mxCell>
        <mxCell id="44u1UOUTEwnYV24cD757-49" value=":Object" style="shape=umlLifeline;perimeter=lifelinePerimeter;whiteSpace=wrap;html=1;container=1;collapsible=0;recursiveResize=0;outlineConnect=0;" parent="1" vertex="1">
          <mxGeometry x="-170" y="550" width="100" height="50" as="geometry" />
        </mxCell>
        <mxCell id="44u1UOUTEwnYV24cD757-50" value=":Object" style="shape=umlLifeline;perimeter=lifelinePerimeter;whiteSpace=wrap;html=1;container=1;collapsible=0;recursiveResize=0;outlineConnect=0;" parent="1" vertex="1">
          <mxGeometry x="-170" y="620" width="100" height="50" as="geometry" />
        </mxCell>
        <mxCell id="44u1UOUTEwnYV24cD757-51" value=":Object" style="shape=umlLifeline;perimeter=lifelinePerimeter;whiteSpace=wrap;html=1;container=1;collapsible=0;recursiveResize=0;outlineConnect=0;" parent="1" vertex="1">
          <mxGeometry x="-170" y="700" width="100" height="50" as="geometry" />
        </mxCell>
        <mxCell id="44u1UOUTEwnYV24cD757-54" value=":Object" style="shape=umlLifeline;perimeter=lifelinePerimeter;whiteSpace=wrap;html=1;container=1;collapsible=0;recursiveResize=0;outlineConnect=0;" parent="1" vertex="1">
          <mxGeometry x="-170" y="330" width="100" height="50" as="geometry" />
        </mxCell>
        <mxCell id="44u1UOUTEwnYV24cD757-55" value=":Object" style="shape=umlLifeline;perimeter=lifelinePerimeter;whiteSpace=wrap;html=1;container=1;collapsible=0;recursiveResize=0;outlineConnect=0;" parent="1" vertex="1">
          <mxGeometry x="-170" y="410" width="100" height="50" as="geometry" />
        </mxCell>
        <mxCell id="44u1UOUTEwnYV24cD757-56" value=":Object" style="shape=umlLifeline;perimeter=lifelinePerimeter;whiteSpace=wrap;html=1;container=1;collapsible=0;recursiveResize=0;outlineConnect=0;" parent="1" vertex="1">
          <mxGeometry x="-170" y="480" width="100" height="50" as="geometry" />
        </mxCell>
        <mxCell id="4nMGlKhWPUo4mE3yYb9U-8" value="User" style="text;html=1;align=center;verticalAlign=middle;resizable=0;points=[];autosize=1;strokeColor=none;fillColor=none;" parent="1" vertex="1">
          <mxGeometry y="220" width="50" height="30" as="geometry" />
        </mxCell>
        <mxCell id="4nMGlKhWPUo4mE3yYb9U-10" value="" style="endArrow=classic;html=1;rounded=0;" parent="1" source="nyDjOfrzS_PwR3EFZTjZ-3" target="nyDjOfrzS_PwR3EFZTjZ-8" edge="1">
          <mxGeometry width="50" height="50" relative="1" as="geometry">
            <mxPoint x="635.19" y="1034.6599999999999" as="sourcePoint" />
            <mxPoint x="300" y="1030" as="targetPoint" />
            <Array as="points">
              <mxPoint x="546.19" y="1034.6599999999999" />
              <mxPoint x="566.19" y="1034.6599999999999" />
            </Array>
          </mxGeometry>
        </mxCell>
        <mxCell id="4nMGlKhWPUo4mE3yYb9U-17" value="getGymAndProg()" style="text;html=1;align=center;verticalAlign=middle;resizable=0;points=[];autosize=1;strokeColor=none;fillColor=none;" parent="1" vertex="1">
          <mxGeometry x="490" y="1010" width="120" height="30" as="geometry" />
        </mxCell>
        <mxCell id="4nMGlKhWPUo4mE3yYb9U-19" value="" style="endArrow=classic;html=1;rounded=0;dashed=1;" parent="1" edge="1">
          <mxGeometry x="-0.179" y="-11" width="50" height="50" relative="1" as="geometry">
            <mxPoint x="300" y="561" as="sourcePoint" />
            <mxPoint x="144.5476190476188" y="561" as="targetPoint" />
            <Array as="points" />
            <mxPoint x="11" y="-11" as="offset" />
          </mxGeometry>
        </mxCell>
        <mxCell id="4nMGlKhWPUo4mE3yYb9U-21" value="retGymAndProg()" style="text;html=1;align=center;verticalAlign=middle;resizable=0;points=[];autosize=1;strokeColor=none;fillColor=none;" parent="1" vertex="1">
          <mxGeometry x="495.19" y="1050" width="120" height="30" as="geometry" />
        </mxCell>
        <mxCell id="4nMGlKhWPUo4mE3yYb9U-22" value="showGymMenu()" style="text;html=1;align=center;verticalAlign=middle;resizable=0;points=[];autosize=1;strokeColor=none;fillColor=none;" parent="1" vertex="1">
          <mxGeometry x="505.19000000000005" y="1090" width="110" height="30" as="geometry" />
        </mxCell>
        <mxCell id="4nMGlKhWPUo4mE3yYb9U-23" value="" style="endArrow=classic;html=1;rounded=0;" parent="1" edge="1">
          <mxGeometry width="50" height="50" relative="1" as="geometry">
            <mxPoint x="19.81034482758605" y="493" as="sourcePoint" />
            <mxPoint x="144.5" y="493" as="targetPoint" />
            <Array as="points">
              <mxPoint x="100" y="493" />
            </Array>
          </mxGeometry>
        </mxCell>
        <mxCell id="4nMGlKhWPUo4mE3yYb9U-28" value="getSuitableGyms()" style="text;html=1;align=center;verticalAlign=middle;resizable=0;points=[];autosize=1;strokeColor=none;fillColor=none;" parent="1" vertex="1">
          <mxGeometry x="155" y="500" width="120" height="30" as="geometry" />
        </mxCell>
        <mxCell id="4nMGlKhWPUo4mE3yYb9U-31" value="retSuitableGyms()" style="text;html=1;align=center;verticalAlign=middle;resizable=0;points=[];autosize=1;strokeColor=none;fillColor=none;" parent="1" vertex="1">
          <mxGeometry x="170" y="538" width="120" height="30" as="geometry" />
        </mxCell>
        <mxCell id="4nMGlKhWPUo4mE3yYb9U-33" value="showSuitableGyms()" style="text;html=1;align=center;verticalAlign=middle;resizable=0;points=[];autosize=1;strokeColor=none;fillColor=none;" parent="1" vertex="1">
          <mxGeometry x="150" y="583" width="130" height="30" as="geometry" />
        </mxCell>
        <mxCell id="4nMGlKhWPUo4mE3yYb9U-34" value="" style="endArrow=classic;html=1;rounded=0;" parent="1" edge="1">
          <mxGeometry width="50" height="50" relative="1" as="geometry">
            <mxPoint x="15" y="666" as="sourcePoint" />
            <mxPoint x="464.5" y="666" as="targetPoint" />
            <Array as="points">
              <mxPoint x="90" y="666" />
            </Array>
          </mxGeometry>
        </mxCell>
        <mxCell id="4nMGlKhWPUo4mE3yYb9U-35" value="select_gym()" style="text;html=1;align=center;verticalAlign=middle;resizable=0;points=[];autosize=1;strokeColor=none;fillColor=none;" parent="1" vertex="1">
          <mxGeometry x="35" y="640" width="90" height="30" as="geometry" />
        </mxCell>
        <mxCell id="4nMGlKhWPUo4mE3yYb9U-40" value="" style="endArrow=classic;html=1;rounded=0;dashed=1;" parent="1" source="4nMGlKhWPUo4mE3yYb9U-39" edge="1">
          <mxGeometry x="-0.179" y="-11" width="50" height="50" relative="1" as="geometry">
            <mxPoint x="300" y="761" as="sourcePoint" />
            <mxPoint x="470" y="761" as="targetPoint" />
            <Array as="points">
              <mxPoint x="341" y="761" />
              <mxPoint x="300" y="761" />
            </Array>
            <mxPoint x="11" y="-11" as="offset" />
          </mxGeometry>
        </mxCell>
        <mxCell id="4nMGlKhWPUo4mE3yYb9U-41" value="" style="endArrow=classic;html=1;rounded=0;" parent="1" target="nyDjOfrzS_PwR3EFZTjZ-8" edge="1">
          <mxGeometry width="50" height="50" relative="1" as="geometry">
            <mxPoint x="464.81034482758605" y="724" as="sourcePoint" />
            <mxPoint x="644.5" y="724" as="targetPoint" />
            <Array as="points" />
          </mxGeometry>
        </mxCell>
        <mxCell id="4nMGlKhWPUo4mE3yYb9U-43" value="insertSelection()" style="endArrow=classic;html=1;rounded=0;" parent="1" edge="1">
          <mxGeometry x="-0.7758" y="10" width="50" height="50" relative="1" as="geometry">
            <mxPoint x="25.5" y="831" as="sourcePoint" />
            <mxPoint x="640" y="832" as="targetPoint" />
            <Array as="points">
              <mxPoint x="425.5" y="832" />
            </Array>
            <mxPoint as="offset" />
          </mxGeometry>
        </mxCell>
        <mxCell id="4nMGlKhWPUo4mE3yYb9U-45" value="" style="endArrow=none;dashed=1;html=1;rounded=0;strokeWidth=2;exitX=0;exitY=0.419;exitDx=0;exitDy=0;exitPerimeter=0;" parent="1" source="4nMGlKhWPUo4mE3yYb9U-44" edge="1">
          <mxGeometry width="50" height="50" relative="1" as="geometry">
            <mxPoint x="40" y="1126" as="sourcePoint" />
            <mxPoint x="830" y="987" as="targetPoint" />
          </mxGeometry>
        </mxCell>
        <mxCell id="4nMGlKhWPUo4mE3yYb9U-46" value="The user wants &lt;br&gt;to register" style="text;html=1;align=center;verticalAlign=middle;resizable=0;points=[];autosize=1;strokeColor=none;fillColor=none;" parent="1" vertex="1">
          <mxGeometry x="25" y="920" width="110" height="40" as="geometry" />
        </mxCell>
        <mxCell id="4nMGlKhWPUo4mE3yYb9U-47" value="The user &lt;br&gt;doesn&#39;t &lt;br&gt;want to register" style="text;html=1;align=center;verticalAlign=middle;resizable=0;points=[];autosize=1;strokeColor=none;fillColor=none;" parent="1" vertex="1">
          <mxGeometry x="35" y="1050" width="110" height="60" as="geometry" />
        </mxCell>
        <mxCell id="4nMGlKhWPUo4mE3yYb9U-48" value="" style="endArrow=classic;html=1;rounded=0;" parent="1" edge="1">
          <mxGeometry width="50" height="50" relative="1" as="geometry">
            <mxPoint x="645.0003448275866" y="920" as="sourcePoint" />
            <mxPoint x="814.69" y="919.9999999999998" as="targetPoint" />
            <Array as="points">
              <mxPoint x="712.94" y="920" />
            </Array>
          </mxGeometry>
        </mxCell>
        <mxCell id="4nMGlKhWPUo4mE3yYb9U-49" value="showSelectSub()" style="text;html=1;align=center;verticalAlign=middle;resizable=0;points=[];autosize=1;strokeColor=none;fillColor=none;" parent="1" vertex="1">
          <mxGeometry x="660" y="890" width="110" height="30" as="geometry" />
        </mxCell>
        <mxCell id="4nMGlKhWPUo4mE3yYb9U-24" value="select_progr()" style="text;html=1;align=center;verticalAlign=middle;resizable=0;points=[];autosize=1;strokeColor=none;fillColor=none;" parent="1" vertex="1">
          <mxGeometry x="40" y="467" width="100" height="30" as="geometry" />
        </mxCell>
        <mxCell id="4nMGlKhWPUo4mE3yYb9U-42" value="showGymInfo()" style="text;html=1;align=center;verticalAlign=middle;resizable=0;points=[];autosize=1;strokeColor=none;fillColor=none;" parent="1" vertex="1">
          <mxGeometry x="515.19" y="760" width="100" height="30" as="geometry" />
        </mxCell>
        <mxCell id="4nMGlKhWPUo4mE3yYb9U-59" value="" style="endArrow=classic;html=1;rounded=0;dashed=1;" parent="1" target="nyDjOfrzS_PwR3EFZTjZ-3" edge="1">
          <mxGeometry width="50" height="50" relative="1" as="geometry">
            <mxPoint x="310" y="1075" as="sourcePoint" />
            <mxPoint x="300" y="1075" as="targetPoint" />
            <Array as="points">
              <mxPoint x="330" y="1075" />
            </Array>
          </mxGeometry>
        </mxCell>
        <mxCell id="4nMGlKhWPUo4mE3yYb9U-62" value="getGymInfo()" style="text;html=1;align=center;verticalAlign=middle;resizable=0;points=[];autosize=1;strokeColor=none;fillColor=none;fontSize=11;" parent="1" vertex="1">
          <mxGeometry x="340" y="700" width="90" height="30" as="geometry" />
        </mxCell>
        <mxCell id="4nMGlKhWPUo4mE3yYb9U-64" value="showGymMenu()" style="text;html=1;align=center;verticalAlign=middle;resizable=0;points=[];autosize=1;strokeColor=none;fillColor=none;" parent="1" vertex="1">
          <mxGeometry x="145.00000000000006" y="420" width="110" height="30" as="geometry" />
        </mxCell>
        <mxCell id="4nMGlKhWPUo4mE3yYb9U-66" value="getGymAndProg()" style="text;html=1;align=center;verticalAlign=middle;resizable=0;points=[];autosize=1;strokeColor=none;fillColor=none;" parent="1" vertex="1">
          <mxGeometry x="170" y="340" width="120" height="30" as="geometry" />
        </mxCell>
        <mxCell id="4nMGlKhWPUo4mE3yYb9U-67" value="retGymAndProg()" style="text;html=1;align=center;verticalAlign=middle;resizable=0;points=[];autosize=1;strokeColor=none;fillColor=none;" parent="1" vertex="1">
          <mxGeometry x="160" y="380" width="120" height="30" as="geometry" />
        </mxCell>
        <mxCell id="4nMGlKhWPUo4mE3yYb9U-68" value="" style="endArrow=classic;html=1;rounded=0;dashed=1;" parent="1" edge="1">
          <mxGeometry x="-0.179" y="-11" width="50" height="50" relative="1" as="geometry">
            <mxPoint x="300.00000000000006" y="403" as="sourcePoint" />
            <mxPoint x="144.81034482758605" y="403" as="targetPoint" />
            <Array as="points">
              <mxPoint x="240.00000000000006" y="403" />
            </Array>
            <mxPoint x="11" y="-11" as="offset" />
          </mxGeometry>
        </mxCell>
        <mxCell id="4nMGlKhWPUo4mE3yYb9U-69" value="" style="endArrow=classic;html=1;rounded=0;" parent="1" edge="1">
          <mxGeometry width="50" height="50" relative="1" as="geometry">
            <mxPoint x="300" y="366" as="sourcePoint" />
            <mxPoint x="300" y="366" as="targetPoint" />
            <Array as="points">
              <mxPoint x="150" y="366" />
            </Array>
          </mxGeometry>
        </mxCell>
        <mxCell id="4nMGlKhWPUo4mE3yYb9U-70" value="select_duration()" style="text;html=1;align=center;verticalAlign=middle;resizable=0;points=[];autosize=1;strokeColor=none;fillColor=none;" parent="1" vertex="1">
          <mxGeometry x="25" y="1174" width="110" height="30" as="geometry" />
        </mxCell>
        <mxCell id="4nMGlKhWPUo4mE3yYb9U-71" value="" style="endArrow=classic;html=1;rounded=0;" parent="1" target="4nMGlKhWPUo4mE3yYb9U-2" edge="1">
          <mxGeometry x="-0.4714" y="11" width="50" height="50" relative="1" as="geometry">
            <mxPoint x="20" y="1200" as="sourcePoint" />
            <mxPoint x="644.5" y="1201" as="targetPoint" />
            <Array as="points">
              <mxPoint x="420" y="1201" />
            </Array>
            <mxPoint as="offset" />
          </mxGeometry>
        </mxCell>
        <mxCell id="4nMGlKhWPUo4mE3yYb9U-72" value="" style="endArrow=classic;html=1;rounded=0;" parent="1" edge="1">
          <mxGeometry x="-0.4714" y="11" width="50" height="50" relative="1" as="geometry">
            <mxPoint x="820" y="1271" as="sourcePoint" />
            <mxPoint x="984.5" y="1271" as="targetPoint" />
            <Array as="points">
              <mxPoint x="820" y="1271" />
            </Array>
            <mxPoint as="offset" />
          </mxGeometry>
        </mxCell>
        <mxCell id="4nMGlKhWPUo4mE3yYb9U-75" value="insertUserData()" style="endArrow=classic;html=1;rounded=0;" parent="1" edge="1">
          <mxGeometry x="-0.8964" y="9" width="50" height="50" relative="1" as="geometry">
            <mxPoint x="20" y="1321" as="sourcePoint" />
            <mxPoint x="984.5" y="1322" as="targetPoint" />
            <Array as="points">
              <mxPoint x="420" y="1322" />
            </Array>
            <mxPoint as="offset" />
          </mxGeometry>
        </mxCell>
        <mxCell id="4nMGlKhWPUo4mE3yYb9U-77" value="checkData()" style="text;html=1;align=center;verticalAlign=middle;resizable=0;points=[];autosize=1;strokeColor=none;fillColor=none;" parent="1" vertex="1">
          <mxGeometry x="995" y="1350" width="90" height="30" as="geometry" />
        </mxCell>
        <mxCell id="4nMGlKhWPUo4mE3yYb9U-78" value="Alt2" style="shape=umlFrame;whiteSpace=wrap;html=1;pointerEvents=0;width=40;height=20;" parent="1" vertex="1">
          <mxGeometry x="40" y="1410" width="1200" height="240" as="geometry" />
        </mxCell>
        <mxCell id="4nMGlKhWPUo4mE3yYb9U-79" value="" style="endArrow=none;dashed=1;html=1;rounded=0;strokeWidth=2;entryX=1.001;entryY=0.488;entryDx=0;entryDy=0;entryPerimeter=0;exitX=0;exitY=0.419;exitDx=0;exitDy=0;exitPerimeter=0;" parent="1" edge="1">
          <mxGeometry width="50" height="50" relative="1" as="geometry">
            <mxPoint x="22.31" y="1519.5" as="sourcePoint" />
            <mxPoint x="1241.2199999999998" y="1525.6399999999999" as="targetPoint" />
            <Array as="points" />
          </mxGeometry>
        </mxCell>
        <mxCell id="4nMGlKhWPUo4mE3yYb9U-80" value="The data given&lt;br&gt;are valid" style="text;html=1;align=center;verticalAlign=middle;resizable=0;points=[];autosize=1;strokeColor=none;fillColor=none;" parent="1" vertex="1">
          <mxGeometry x="40" y="1450" width="100" height="40" as="geometry" />
        </mxCell>
        <mxCell id="4nMGlKhWPUo4mE3yYb9U-81" value="The data given&lt;br&gt;&amp;nbsp;are not&amp;nbsp;valid" style="text;html=1;align=center;verticalAlign=middle;resizable=0;points=[];autosize=1;strokeColor=none;fillColor=none;" parent="1" vertex="1">
          <mxGeometry x="40" y="1570" width="100" height="40" as="geometry" />
        </mxCell>
        <mxCell id="4nMGlKhWPUo4mE3yYb9U-82" value="" style="endArrow=classic;html=1;rounded=0;entryX=1.061;entryY=0.854;entryDx=0;entryDy=0;entryPerimeter=0;" parent="1" target="_HtZvy6H4poGQE2jAPsX-8" edge="1">
          <mxGeometry x="1" y="392" width="50" height="50" relative="1" as="geometry">
            <mxPoint x="1139.9985714285715" y="1565" as="sourcePoint" />
            <mxPoint x="1151.07" y="1585" as="targetPoint" />
            <Array as="points">
              <mxPoint x="1185.07" y="1565" />
              <mxPoint x="1185.07" y="1584" />
            </Array>
            <mxPoint x="-367" y="-228" as="offset" />
          </mxGeometry>
        </mxCell>
        <mxCell id="4nMGlKhWPUo4mE3yYb9U-83" value="showCompletion()" style="text;html=1;align=center;verticalAlign=middle;resizable=0;points=[];autosize=1;strokeColor=none;fillColor=none;fontSize=11;" parent="1" vertex="1">
          <mxGeometry x="1130" y="1430" width="110" height="30" as="geometry" />
        </mxCell>
        <mxCell id="4nMGlKhWPUo4mE3yYb9U-84" value="showError()" style="text;html=1;align=center;verticalAlign=middle;resizable=0;points=[];autosize=1;strokeColor=none;fillColor=none;fontSize=11;" parent="1" vertex="1">
          <mxGeometry x="1130" y="1540" width="80" height="30" as="geometry" />
        </mxCell>
        <mxCell id="4nMGlKhWPUo4mE3yYb9U-89" value="showUserData()" style="text;html=1;align=center;verticalAlign=middle;resizable=0;points=[];autosize=1;strokeColor=none;fillColor=none;fontSize=11;" parent="1" vertex="1">
          <mxGeometry x="845" y="1250" width="100" height="30" as="geometry" />
        </mxCell>
        <mxCell id="MFRJw0hke19sb6FxKmCz-1" value="" style="shape=umlLifeline;perimeter=lifelinePerimeter;whiteSpace=wrap;html=1;container=1;dropTarget=0;collapsible=0;recursiveResize=0;outlineConnect=0;portConstraint=eastwest;newEdgeStyle={&quot;edgeStyle&quot;:&quot;elbowEdgeStyle&quot;,&quot;elbow&quot;:&quot;vertical&quot;,&quot;curved&quot;:0,&quot;rounded&quot;:0};participant=umlEntity;" parent="1" vertex="1">
          <mxGeometry x="1115" y="265" width="40" height="1385" as="geometry" />
        </mxCell>
        <mxCell id="MFRJw0hke19sb6FxKmCz-3" value="" style="endArrow=classic;html=1;rounded=0;" parent="1" edge="1">
          <mxGeometry x="-0.4714" y="11" width="50" height="50" relative="1" as="geometry">
            <mxPoint x="982.31" y="1370" as="sourcePoint" />
            <mxPoint x="1130" y="1370" as="targetPoint" />
            <Array as="points">
              <mxPoint x="982.31" y="1370" />
            </Array>
            <mxPoint as="offset" />
          </mxGeometry>
        </mxCell>
        <mxCell id="MFRJw0hke19sb6FxKmCz-4" value="" style="endArrow=classic;html=1;rounded=0;entryX=1.144;entryY=0.398;entryDx=0;entryDy=0;entryPerimeter=0;" parent="1" target="_HtZvy6H4poGQE2jAPsX-8" edge="1">
          <mxGeometry x="1" y="392" width="50" height="50" relative="1" as="geometry">
            <mxPoint x="1139.9985714285715" y="1450" as="sourcePoint" />
            <mxPoint x="1151.07" y="1470" as="targetPoint" />
            <Array as="points">
              <mxPoint x="1185.07" y="1450" />
              <mxPoint x="1185.07" y="1469" />
            </Array>
            <mxPoint x="-367" y="-228" as="offset" />
          </mxGeometry>
        </mxCell>
        <mxCell id="MFRJw0hke19sb6FxKmCz-7" value="" style="endArrow=classic;html=1;rounded=0;" parent="1" edge="1">
          <mxGeometry width="50" height="50" relative="1" as="geometry">
            <mxPoint x="1130" y="1620" as="sourcePoint" />
            <mxPoint x="990" y="1620" as="targetPoint" />
            <Array as="points">
              <mxPoint x="1061.19" y="1620" />
              <mxPoint x="1081.19" y="1620" />
            </Array>
          </mxGeometry>
        </mxCell>
        <mxCell id="_HtZvy6H4poGQE2jAPsX-1" value="" style="html=1;points=[];perimeter=orthogonalPerimeter;" parent="1" vertex="1">
          <mxGeometry x="15" y="320" width="10" height="1320" as="geometry" />
        </mxCell>
        <mxCell id="_HtZvy6H4poGQE2jAPsX-7" value="" style="html=1;points=[];perimeter=orthogonalPerimeter;" parent="1" vertex="1">
          <mxGeometry x="980" y="1270" width="10" height="350" as="geometry" />
        </mxCell>
        <mxCell id="_HtZvy6H4poGQE2jAPsX-8" value="" style="html=1;points=[];perimeter=orthogonalPerimeter;" parent="1" vertex="1">
          <mxGeometry x="1130" y="1370" width="10" height="250" as="geometry" />
        </mxCell>
        <mxCell id="sL1GHlydoXIhzUGOK7BQ-3" value="" style="endArrow=classic;html=1;rounded=0;strokeWidth=1;fontSize=12;" parent="1" edge="1">
          <mxGeometry y="61" width="50" height="50" relative="1" as="geometry">
            <mxPoint x="150" y="440" as="sourcePoint" />
            <mxPoint x="150" y="460" as="targetPoint" />
            <Array as="points">
              <mxPoint x="189.5" y="440" />
              <mxPoint x="189.5" y="460" />
            </Array>
            <mxPoint as="offset" />
          </mxGeometry>
        </mxCell>
        <mxCell id="sL1GHlydoXIhzUGOK7BQ-6" value="" style="endArrow=classic;html=1;rounded=0;" parent="1" edge="1">
          <mxGeometry width="50" height="50" relative="1" as="geometry">
            <mxPoint x="144.5476190476188" y="525" as="sourcePoint" />
            <mxPoint x="300" y="525" as="targetPoint" />
          </mxGeometry>
        </mxCell>
        <mxCell id="sL1GHlydoXIhzUGOK7BQ-8" value="" style="endArrow=classic;html=1;rounded=0;" parent="1" edge="1">
          <mxGeometry width="50" height="50" relative="1" as="geometry">
            <mxPoint x="144.5476190476188" y="606" as="sourcePoint" />
            <mxPoint x="464.49999999999955" y="606" as="targetPoint" />
          </mxGeometry>
        </mxCell>
        <mxCell id="4nMGlKhWPUo4mE3yYb9U-39" value="retGymInfo()" style="text;html=1;align=center;verticalAlign=middle;resizable=0;points=[];autosize=1;strokeColor=none;fillColor=none;fontSize=11;" parent="1" vertex="1">
          <mxGeometry x="330" y="740" width="90" height="30" as="geometry" />
        </mxCell>
        <mxCell id="sL1GHlydoXIhzUGOK7BQ-10" value="" style="endArrow=classic;html=1;rounded=0;entryX=-0.176;entryY=0.226;entryDx=0;entryDy=0;entryPerimeter=0;" parent="1" edge="1">
          <mxGeometry width="50" height="50" relative="1" as="geometry">
            <mxPoint x="469.9976190476188" y="785.2" as="sourcePoint" />
            <mxPoint x="643.6900000000003" y="784.52" as="targetPoint" />
          </mxGeometry>
        </mxCell>
        <mxCell id="sL1GHlydoXIhzUGOK7BQ-16" value="" style="endArrow=classic;html=1;rounded=0;" parent="1" source="nyDjOfrzS_PwR3EFZTjZ-3" edge="1">
          <mxGeometry width="50" height="50" relative="1" as="geometry">
            <mxPoint x="410" y="1160" as="sourcePoint" />
            <mxPoint x="145" y="1120" as="targetPoint" />
          </mxGeometry>
        </mxCell>
        <mxCell id="sL1GHlydoXIhzUGOK7BQ-17" value="showUserData()" style="text;html=1;align=center;verticalAlign=middle;resizable=0;points=[];autosize=1;strokeColor=none;fillColor=none;fontSize=11;" parent="1" vertex="1">
          <mxGeometry x="1015" y="1600" width="100" height="30" as="geometry" />
        </mxCell>
        <mxCell id="3fTT5cKaGZSULvSTmzJB-8" value="GymRegistrationPage" style="rounded=0;whiteSpace=wrap;html=1;fontSize=10;" vertex="1" parent="1">
          <mxGeometry x="95" y="260" width="100" height="40" as="geometry" />
        </mxCell>
        <mxCell id="3fTT5cKaGZSULvSTmzJB-9" value="Gym" style="rounded=0;whiteSpace=wrap;html=1;" vertex="1" parent="1">
          <mxGeometry x="250" y="260" width="100" height="40" as="geometry" />
        </mxCell>
        <mxCell id="3fTT5cKaGZSULvSTmzJB-10" value="SuitableGymPage" style="rounded=0;whiteSpace=wrap;html=1;" vertex="1" parent="1">
          <mxGeometry x="415" y="265" width="100" height="40" as="geometry" />
        </mxCell>
        <mxCell id="3fTT5cKaGZSULvSTmzJB-11" value="GymInfoPage" style="rounded=0;whiteSpace=wrap;html=1;" vertex="1" parent="1">
          <mxGeometry x="595" y="265" width="100" height="40" as="geometry" />
        </mxCell>
        <mxCell id="3fTT5cKaGZSULvSTmzJB-12" value="SubscriptionPage" style="rounded=0;whiteSpace=wrap;html=1;" vertex="1" parent="1">
          <mxGeometry x="765" y="265" width="100" height="40" as="geometry" />
        </mxCell>
        <mxCell id="3fTT5cKaGZSULvSTmzJB-13" value="GymUserInfo" style="rounded=0;whiteSpace=wrap;html=1;" vertex="1" parent="1">
          <mxGeometry x="935" y="265" width="100" height="40" as="geometry" />
        </mxCell>
        <mxCell id="3fTT5cKaGZSULvSTmzJB-14" value="GymRegistrationForm" style="rounded=0;whiteSpace=wrap;html=1;fontSize=10;" vertex="1" parent="1">
          <mxGeometry x="1082.31" y="265" width="100" height="40" as="geometry" />
        </mxCell>
      </root>
    </mxGraphModel>
  </diagram>
</mxfile>
